<?xml version="1.0" encoding="UTF-8"?>
<svg width="128px" height="40px" viewBox="0 0 128 40" version="1.1" xmlns="http://www.w3.org/2000/svg" xmlns:xlink="http://www.w3.org/1999/xlink">
    <!-- Generator: Sketch 59.1 (86144) - https://sketch.com -->
    <title>Agrio Logo</title>
    <desc>Created with Sketch.</desc>
    <defs>
        <path d="M9.60125387,1.62274112 L0.145049536,26.5811168 C-0.120055728,27.5859898 0.410154799,28.8006091 1.73589474,29.3449746 L1.73589474,29.3449746 L2.22188545,29.3449746 C3.2823065,29.3449746 4.12205573,28.8006091 4.34294118,27.8373604 L4.34294118,27.8373604 L6.19889164,23.5658883 L16.9806223,23.5658883 L18.5710402,27.8373604 C19.1014644,29.0936041 20.4712105,29.5543147 21.4876254,29.3449746 L21.4876254,29.3449746 C22.8131517,28.8006091 23.2991424,27.5859898 22.8131517,26.5811168 L22.8131517,26.5811168 L13.8431517,1.62274112 C13.5780464,0.827005076 12.8267368,0.115126904 11.7665294,0.115126904 L11.7665294,0.115126904 C10.6616749,0.115126904 9.86635913,0.827005076 9.60125387,1.62274112 L9.60125387,1.62274112 Z M11.7665294,8.61604061 L15.6548824,19.3364467 L7.78952322,19.3364467 L11.7665294,8.61604061 Z M23.7411269,18.8759391 C23.7411269,24.6546193 28.6901146,29.386802 34.8321827,29.386802 L34.8321827,29.386802 C37.3507895,29.386802 39.6485108,28.5492386 41.5486811,27.2091371 L41.5486811,27.2091371 L41.5486811,29.5124873 C41.4602415,32.9463959 38.4996502,35.7520812 34.8321827,35.7520812 L34.8321827,35.7520812 C32.2251362,35.7520812 29.9274149,34.3701523 28.7783406,32.1506599 L28.7783406,32.1506599 C28.24813,31.1455838 26.9226037,30.7267005 25.8621827,31.2294416 L25.8621827,31.2294416 C24.7575418,31.7317766 24.3155573,32.9463959 24.8457678,33.9930964 L24.8457678,33.9930964 C26.7457245,37.6363452 30.546065,39.897868 34.8321827,39.897868 L34.8321827,39.897868 C40.930031,39.897868 45.9232384,35.1656853 45.9232384,29.386802 L45.9232384,29.386802 L45.9232384,18.8759391 C45.9232384,13.0550254 40.930031,8.3648731 34.8321827,8.3648731 L34.8321827,8.3648731 C28.6901146,8.3648731 23.7411269,13.0550254 23.7411269,18.8759391 L23.7411269,18.8759391 Z M28.1156842,18.8759391 C28.1156842,15.3581726 31.1202817,12.5106599 34.8321827,12.5106599 L34.8321827,12.5106599 C38.4996502,12.5106599 41.5486811,15.3581726 41.5486811,18.8759391 L41.5486811,18.8759391 C41.5486811,22.3516751 38.4996502,25.2410152 34.8321827,25.2410152 L34.8321827,25.2410152 C31.1202817,25.2410152 28.1156842,22.3516751 28.1156842,18.8759391 L28.1156842,18.8759391 Z M64.4818885,10.4586802 L64.4818885,27.3348223 C64.4818885,28.5074112 65.45387,29.4286294 66.6911703,29.4286294 L66.6911703,29.4286294 C67.8842508,29.4286294 68.8564458,28.5074112 68.8564458,27.3348223 L68.8564458,27.3348223 L68.8564458,10.4586802 C68.8564458,9.32791878 67.8842508,8.40670051 66.6911703,8.40670051 L66.6911703,8.40670051 C65.45387,8.40670051 64.4818885,9.32791878 64.4818885,10.4586802 L64.4818885,10.4586802 Z M48.5302848,18.9177665 L48.5302848,27.3348223 C48.5302848,28.4655838 49.5022663,29.4286294 50.7395666,29.4286294 L50.7395666,29.4286294 C51.9326471,29.4286294 52.9046285,28.4655838 52.9046285,27.3348223 L52.9046285,27.3348223 L52.9046285,18.9177665 C52.9046285,15.400203 55.9096533,12.5524873 59.6211269,12.5524873 L59.6211269,12.5524873 C60.8584272,12.5524873 61.8306223,11.5892386 61.8306223,10.4586802 L61.8306223,10.4586802 C61.8306223,9.32791878 60.8584272,8.40670051 59.6211269,8.40670051 L59.6211269,8.40670051 C53.5234923,8.40670051 48.5302848,13.0968528 48.5302848,18.9177665 L48.5302848,18.9177665 Z" id="path-1"></path>
        <path d="M0,10.5 C0,16.2989281 4.92473428,21 11,21 L11,21 C17.0750676,21 22,16.2989281 22,10.5 L22,10.5 C22,4.70107188 17.0750676,-5.68434189e-14 11,-5.68434189e-14 L11,-5.68434189e-14 C4.92473428,-5.68434189e-14 0,4.70107188 0,10.5 L0,10.5 Z M4.4,10.5 C4.4,7.0204918 7.3549991,4.2 11,4.2 L11,4.2 C14.6451991,4.2 17.6,7.0204918 17.6,10.5 L17.6,10.5 C17.6,13.9795082 14.6451991,16.8 11,16.8 L11,16.8 C7.3549991,16.8 4.4,13.9795082 4.4,10.5 L4.4,10.5 Z" id="path-3"></path>
        <polygon id="path-5" points="0 0.163708718 15.4249393 0.163708718 15.4249393 8.9279169 0 8.9279169"></polygon>
    </defs>
    <g id="Page-1" stroke="none" stroke-width="1" fill="none" fill-rule="evenodd">
        <g id="Desktop-Library-Result-" transform="translate(-209.000000, -18.000000)">
            <g id="Navigation-Bar">
                <g id="Agrio-Logo" transform="translate(209.000000, 18.000000)">
                    <path d="M55.8079387,26.6105242 C56.2955019,27.6210892 55.8079387,28.8421375 54.4781234,29.3894758 C53.4584198,29.5999592 52.0842416,29.1369367 51.5523155,27.8736283 L49.9563228,23.5790333 L39.1397059,23.5790333 L37.2779645,27.8736283 C37.05615,28.8421375 36.2138979,29.3894758 35.1500457,29.3894758 L34.6624824,29.3894758 C33.3324528,28.8421375 32.8005267,27.6210892 33.0664898,26.6105242 L42.5532914,1.5158475 C42.8192544,0.715765835 43.6171436,0 44.7253588,0 C45.789211,0 46.5429516,0.715765835 46.8089146,1.5158475 L55.8079387,26.6105242 Z M40.7356985,19.32629 L48.6265075,19.32629 L44.7253588,8.54733834 L40.7356985,19.32629 Z M78.992588,18.8632675 L78.992588,29.4315317 C78.992588,35.2421783 73.9834384,40 67.8658594,40 C63.565659,40 59.753236,37.7263308 57.8471317,34.0631858 C57.3152056,33.010565 57.7584059,31.7895167 58.8668354,31.2842342 C59.9306876,30.7789517 61.2605029,31.1999183 61.792429,32.2104833 C62.9452214,34.4420967 65.2503774,35.8315725 67.8658594,35.8315725 C71.5451937,35.8315725 74.5153646,33.010565 74.603876,29.5579033 L74.603876,27.2421783 C72.6977717,28.5893942 70.3926157,29.4315317 67.8658594,29.4315317 C61.7039176,29.4315317 56.7389166,24.67371 56.7389166,18.8632675 C56.7389166,13.010565 61.7039176,8.29479916 67.8658594,8.29479916 C73.9834384,8.29479916 78.992588,13.010565 78.992588,18.8632675 L78.992588,18.8632675 Z M67.8658594,25.2631042 C71.5451937,25.2631042 74.603876,22.357985 74.603876,18.8632675 C74.603876,15.32629 71.5451937,12.4632267 67.8658594,12.4632267 C64.141948,12.4632267 61.1276285,15.32629 61.1276285,18.8632675 C61.1276285,22.357985 64.141948,25.2631042 67.8658594,25.2631042 L67.8658594,25.2631042 Z M92.7350129,8.336855 C86.6174339,8.336855 81.60807,13.0526208 81.60807,18.9053233 L81.60807,27.3683458 C81.60807,28.5052825 82.5834108,29.4735875 83.8247146,29.4735875 C85.0216555,29.4735875 85.996782,28.5052825 85.996782,27.3683458 L85.996782,18.9053233 C85.996782,15.36855 89.0113157,12.5052825 92.7350129,12.5052825 C93.9763167,12.5052825 94.9516575,11.5367733 94.9516575,10.4000408 C94.9516575,9.26310417 93.9763167,8.336855 92.7350129,8.336855 L92.7350129,8.336855 Z M99.8279326,29.4735875 C101.024874,29.4735875 102,28.5473383 102,27.3683458 L102,10.4000408 C102,9.26310417 101.024874,8.336855 99.8279326,8.336855 C98.5866288,8.336855 97.611288,9.26310417 97.611288,10.4000408 L97.611288,27.3683458 C97.611288,28.5473383 98.5866288,29.4735875 99.8279326,29.4735875 L99.8279326,29.4735875 Z" id="Fill-1" fill="#01496D"></path>
                    <g id="Group-5" transform="translate(33.000000, 0.000000)">
                        <mask id="mask-2" fill="white">
                            <use xlink:href="#path-1"></use>
                        </mask>
                        <g id="Clip-4"></g>
                        <polygon id="Fill-3" fill="#01496D" mask="url(#mask-2)" points="-3.87382663 43.6548223 72.8090991 43.6548223 72.8090991 -3.64182741 -3.87382663 -3.64182741"></polygon>
                    </g>
                    <g id="Group-10" transform="translate(117.000000, 18.500000) rotate(-360.000000) translate(-117.000000, -18.500000) translate(106.000000, 8.000000)">
                        <mask id="mask-4" fill="white">
                            <use xlink:href="#path-3"></use>
                        </mask>
                        <g id="Clip-9"></g>
                        <polygon id="Fill-8" fill="#01496D" mask="url(#mask-4)" points="-3 25 26 25 26 -3 -3 -3"></polygon>
                    </g>
                    <g id="Group-30">
                        <path d="M97.4793941,2.23422708 C97.4793941,1.06149429 98.4810427,0.110914479 99.7167791,0.110914479 C100.952515,0.110914479 101.954164,1.06149429 101.954164,2.23422708 C101.954164,3.40695987 100.952515,4.35753968 99.7167791,4.35753968 C98.4810427,4.35753968 97.4793941,3.40695987 97.4793941,2.23422708" id="Fill-11" fill="#01496D"></path>
                        <path d="M28.2314874,1.79067042 C24.8142741,4.00146715 21.5031151,6.60776502 18.4448222,9.29121903 L28.5601067,9.02228635 C28.9066506,5.30583114 28.3780858,2.47596273 28.2314874,1.79067042" id="Fill-13" fill="#B2D243"></path>
                        <path d="M19.2592858,6.78641894 C22.1259552,4.77975184 25.0252732,3.01265353 27.8260054,1.55741992 C26.6103276,1.34356984 22.5008799,0.761152384 17.51611,1.58010099 C17.8046121,3.42678555 18.4003946,5.17930318 19.2624866,6.78419134 C19.2614197,6.78479887 19.2603527,6.78581141 19.2592858,6.78641894" id="Fill-15" fill="#76BF44"></path>
                        <path d="M11.5398916,12.8515799 C13.6422013,11.0026677 15.8424565,9.24853002 18.0772808,7.62845364 C17.0931301,5.85447001 16.4122054,3.90815075 16.082946,1.85369139 C13.5201427,2.40289728 10.7898289,3.3449717 8.13846904,4.89842243 C8.81704644,7.74874431 9.97980377,10.4267306 11.5452264,12.8469222 C11.5433059,12.8483397 11.5415987,12.8499598 11.5398916,12.8515799" id="Fill-17" fill="#00AF4D"></path>
                        <path d="M8.89499749,18.2346684 L17.5839891,18.1048598 C17.6249598,18.1006071 17.6657172,18.0991895 17.7064745,18.1016196 L26.0092318,17.8845294 C27.330964,15.3333141 28.038349,12.7764286 28.3844661,10.4694398 L16.7728971,10.7889999 C13.9361021,13.3780845 11.0871439,15.8930505 8.89499749,18.2346684" id="Fill-19" fill="#76BF44"></path>
                        <path d="M8.14721799,9.52979553 C7.61843975,8.29975254 7.18120544,7.02576498 6.84084979,5.71573071 C6.03701297,6.25643121 5.24341883,6.85059422 4.47009665,7.52009078 C2.00523891,9.65413639 0.870222176,12.5970051 0.942987866,15.5471642 C4.28828912,12.0561021 7.05103808,10.1998996 8.14721799,9.52979553" id="Fill-21" fill="#069146"></path>
                        <path d="M17.8204883,19.5390527 C16.974187,20.1407085 14.0851117,22.34624 10.7462121,26.5604637 C14.8155427,27.3137992 19.2706808,26.2242978 22.1691452,23.2208787 C23.3803418,21.9659271 24.369187,20.6589305 25.1839067,19.3373531 L17.8204883,19.5390527 Z" id="Fill-23" fill="#069146"></path>
                        <path d="M1.15518201,17.4216736 C1.45285983,18.9170041 2.01876778,20.2910314 2.92097699,21.5925602 C5.12379289,18.8870327 7.7166841,16.3127313 10.4636423,13.8137635 C9.82838285,12.8542733 9.25671339,11.8536736 8.74628661,10.8204699 C7.51439121,11.6041818 4.57666318,13.6705892 1.15518201,17.4216736" id="Fill-25" fill="#B2D243"></path>
                        <g id="Group-29" transform="translate(0.000000, 19.440917)">
                            <mask id="mask-6" fill="white">
                                <use xlink:href="#path-5"></use>
                            </mask>
                            <g id="Clip-28"></g>
                            <path d="M7.29332008,0.423730977 C5.86510669,1.86134625 2.31303138,5.70659753 -0.000106694561,8.65513654 C1.85040377,8.88255476 2.22703556,8.9279169 2.22703556,8.9279169 C2.22703556,8.9279169 3.7719728,6.38783965 5.31498954,4.74771483 C6.29209833,5.39473283 8.09054184,6.39472498 9.21638285,6.74385143 C11.6810272,3.54804827 13.9346297,1.41116753 15.4249393,0.163708718 L7.29332008,0.423730977 Z" id="Fill-27" fill="#00AF4D" mask="url(#mask-6)"></path>
                        </g>
                    </g>
                </g>
            </g>
        </g>
    </g>
</svg>